<?xml version="1.0" standalone="no"?>
<!DOCTYPE svg PUBLIC "-//W3C//DTD SVG 20010904//EN"
 "http://www.w3.org/TR/2001/REC-SVG-20010904/DTD/svg10.dtd">
<svg version="1.0" xmlns="http://www.w3.org/2000/svg"
 width="642.000000pt" height="388.000000pt" viewBox="0 0 642.000000 388.000000"
 preserveAspectRatio="xMidYMid meet">

<g transform="translate(0.000000,388.000000) scale(0.100000,-0.100000)"
fill="#000000" stroke="none">
<path d="M3140 3731 c-77 -25 -127 -65 -310 -246 l-195 -194 -290 -3 c-280 -3
-292 -4 -343 -27 -65 -29 -123 -93 -147 -163 -16 -46 -19 -92 -23 -333 l-3
-280 -188 -190 c-214 -217 -236 -250 -236 -355 0 -111 29 -155 241 -370 l182
-185 4 -270 c5 -307 12 -342 78 -417 23 -26 61 -55 92 -69 51 -23 63 -24 333
-27 l280 -3 195 -192 c227 -224 271 -253 380 -251 106 1 146 28 368 248 l193
191 292 5 c278 5 294 6 342 28 68 31 121 86 147 152 21 51 22 75 26 340 l4
285 187 190 c216 219 236 250 236 360 -1 117 -54 194 -284 412 l-139 133 -4
272 c-5 328 -11 355 -91 433 -77 75 -90 78 -412 82 l-280 4 -195 193 c-150
148 -208 199 -251 220 -60 29 -146 41 -189 27z m169 -56 c41 -19 96 -67 227
-197 95 -94 171 -175 168 -180 -3 -4 -54 -8 -115 -8 -87 0 -109 -3 -109 -14 0
-18 126 -31 213 -22 l61 6 383 -382 383 -383 0 -540 0 -540 -100 -100 c-55
-55 -100 -105 -100 -112 0 -28 29 -9 105 67 44 44 83 80 87 80 5 0 8 -105 8
-233 0 -319 -19 -384 -131 -447 -43 -25 -47 -25 -311 -28 -148 -2 -268 0 -268
5 0 4 30 38 67 75 53 54 65 70 55 80 -10 10 -31 -6 -100 -75 l-87 -87 -130 0
c-128 0 -164 -7 -151 -29 5 -7 46 -11 111 -11 57 0 106 -4 109 -8 3 -5 -73
-86 -168 -180 -198 -196 -247 -228 -340 -220 -90 7 -138 40 -323 222 -95 93
-170 173 -167 177 3 5 52 9 109 9 65 0 106 4 111 11 13 22 -23 29 -151 29
l-130 0 -377 377 -378 378 0 540 0 540 97 97 c77 77 95 100 85 110 -10 10 -28
-4 -90 -65 -43 -42 -81 -77 -85 -77 -5 0 -7 116 -5 258 3 246 4 259 27 310 28
63 86 115 144 132 46 13 505 27 533 16 15 -6 5 -20 -54 -79 -69 -69 -86 -97
-60 -97 6 0 53 41 104 90 l91 90 127 0 c105 0 126 2 126 15 0 12 -18 15 -99
15 -55 0 -102 4 -105 9 -9 14 345 355 394 379 63 31 139 29 209 -3z m1041
-436 c29 -8 60 -28 90 -58 71 -71 80 -117 80 -394 0 -125 -3 -227 -8 -227 -4
0 -162 155 -351 344 -229 229 -339 346 -330 350 26 11 472 -1 519 -15z m387
-961 c182 -183 213 -231 213 -327 0 -89 -26 -128 -209 -313 -90 -93 -168 -168
-173 -168 -4 0 -8 218 -8 485 0 267 4 485 8 485 4 0 80 -73 169 -162z m-2903
-341 c0 -262 -4 -480 -8 -484 -4 -4 -80 67 -170 157 -183 185 -216 236 -216
327 0 90 27 131 209 316 91 92 170 166 176 164 7 -3 10 -156 9 -480z m395
-951 c189 -189 339 -346 335 -348 -20 -11 -405 -9 -465 2 -110 20 -179 72
-209 158 -15 43 -27 532 -13 532 4 0 163 -155 352 -344z"/>
</g>
</svg>
